<svg id="visual" viewBox="0 0 1920 1920" width="1920" height="1920" xmlns="http://www.w3.org/2000/svg" xmlns:xlink="http://www.w3.org/1999/xlink" version="1.1"><rect width="1920" height="1920" fill="#20313d"></rect><g><g transform="translate(489 609)"><path d="M0 -391.7L339.2 -195.8L339.2 195.8L0 391.7L-339.2 195.8L-339.2 -195.8Z" fill="#243441"></path></g><g transform="translate(1022 1507)"><path d="M0 -225L194.9 -112.5L194.9 112.5L0 225L-194.9 112.5L-194.9 -112.5Z" fill="#243441"></path></g><g transform="translate(1329 148)"><path d="M0 -245L212.2 -122.5L212.2 122.5L0 245L-212.2 122.5L-212.2 -122.5Z" fill="#243441"></path></g><g transform="translate(1675 931)"><path d="M0 -313L271.1 -156.5L271.1 156.5L0 313L-271.1 156.5L-271.1 -156.5Z" fill="#243441"></path></g><g transform="translate(94 1759)"><path d="M0 -171L148.1 -85.5L148.1 85.5L0 171L-148.1 85.5L-148.1 -85.5Z" fill="#243441"></path></g><g transform="translate(1813 1748)"><path d="M0 -219L189.7 -109.5L189.7 109.5L0 219L-189.7 109.5L-189.7 -109.5Z" fill="#243441"></path></g></g></svg>